<svg xmlns="http://www.w3.org/2000/svg" width="25.2" height="20.6" viewBox="0 0 25.2 20.6"><title>twitter</title><g id="Layer_2" data-name="Layer 2"><g id="Layer_1-2" data-name="Layer 1"><path d="M24.5.6l-2.7.9c-.4.2-.6.1-.9-.2A5.2,5.2,0,0,0,15,.6,5.4,5.4,0,0,0,12.3,6c.1.1,0,.3,0,.4A14.8,14.8,0,0,1,1.6.9C.4,3.7.9,6,3.2,7.9H3.1L.9,7.4A5.5,5.5,0,0,0,5,12.5H2.8a5,5,0,0,0,4.8,3.6A10.4,10.4,0,0,1,0,18.3l.4.2A13.9,13.9,0,0,0,7,20.6a14.2,14.2,0,0,0,8.1-1.8c5-2.9,7.4-7.4,7.6-13.2a.9.9,0,0,1,.4-.8,9.3,9.3,0,0,0,2.1-2.3L23.8,3l-1.3.3A6.6,6.6,0,0,0,24.5.6Z"/></g></g></svg>