<svg xmlns="http://www.w3.org/2000/svg" width="71.221" height="71.206" viewBox="0 0 71.221 71.206"><defs><style>.cls-1{fill:#b2b2b2;}</style></defs><title>cc1</title><g id="Layer_2" data-name="Layer 2"><g id="Layer_1-2" data-name="Layer 1"><path class="cls-1" d="M35.725.008c20.03.021,35.53,15.646,35.5,35.783A35.445,35.445,0,0,1,35.45,71.206C16.014,71.192.082,55.066,0,35.522-.075,17.448,15.08-.436,35.725.008ZM64.769,35.781A29.04,29.04,0,0,0,35.916,6.428C18.066,6.152,6.36,21.837,6.443,35.48c.1,15.8,13.205,29.1,29.033,29.194C49.655,64.759,64.968,53.553,64.769,35.781Z"/><path class="cls-1" d="M35.183,29.736l-4.451,2.313a15.6,15.6,0,0,0-2.419-2.17c-2.248-1.3-5.265-.334-5.868,2.152a18.8,18.8,0,0,0-.165,6.5,3.668,3.668,0,0,0,3.373,3.245,4.426,4.426,0,0,0,4.794-2.051c.153-.247.319-.485.554-.838l4.144,2.1c-1.766,4.176-6.42,6.348-11.543,5.458-4.912-.853-7.917-4.466-8.2-9.863-.317-5.932,2.36-10.248,7.214-11.635C27.643,23.516,32.743,25.392,35.183,29.736Z"/><path class="cls-1" d="M51.574,38.9l4.187,2.126c-2.088,4.385-6.973,6.487-12.2,5.342-4.673-1.023-7.54-4.946-7.6-10.4-.062-5.748,2.74-9.893,7.493-11.084,5.172-1.3,10.071.618,12.237,4.861l-4.358,2.308a15.554,15.554,0,0,0-2.415-2.172,4.016,4.016,0,0,0-5.989,2.251,16.836,16.836,0,0,0-.259,6,3.974,3.974,0,0,0,3.448,3.645C48.436,42.165,49.745,41.5,51.574,38.9Z"/></g></g></svg>