<svg xmlns="http://www.w3.org/2000/svg" width="71.198" height="71.198" viewBox="0 0 71.198 71.198"><defs><style>.cls-1{fill:#b2b2b2;}</style></defs><title>cc2</title><g id="Layer_2" data-name="Layer 2"><g id="Layer_1-2" data-name="Layer 1"><path class="cls-1" d="M35.551,0A35.138,35.138,0,0,1,71.2,35.665,35.228,35.228,0,0,1,35.58,71.2,35.6,35.6,0,0,1,35.551,0ZM64.745,35.656a28.874,28.874,0,0,0-28.992-29.2,29.278,29.278,0,0,0-29.3,29.024A29.422,29.422,0,0,0,35.567,64.741C50.145,64.9,65.125,52.579,64.745,35.656Z"/><path class="cls-1" d="M19.566,41.345h8.706a2.675,2.675,0,0,1,.253.61A6.04,6.04,0,0,0,33.8,47.5c3.475.668,6.619.091,8.513-3.088a16.588,16.588,0,0,0,.465-16.64c-1.51-3.041-4.8-4.049-8.775-3.25-3.127.629-4.915,2.588-5.379,5.955l2.123.178L24.006,37.12l-6.5-6.52h2.152c.148-.533.27-.924.365-1.321,2.17-8.993,9.384-13.745,18.581-12.238a17.537,17.537,0,0,1,15,16.577c.4,5.639-.548,10.854-4.3,15.313a18.264,18.264,0,0,1-21.1,4.773C23.038,51.316,20.334,47.125,19.566,41.345Z"/></g></g></svg>