<svg xmlns="http://www.w3.org/2000/svg" width="71.198" height="71.198" viewBox="0 0 71.198 71.198"><defs><style>.cls-1{fill:#b2b2b2;}</style></defs><title>cc3</title><g id="Layer_2" data-name="Layer 2"><g id="Layer_1-2" data-name="Layer 1"><path class="cls-1" d="M35.64,0A35.6,35.6,0,1,1,0,35.288,35.587,35.587,0,0,1,35.64,0Zm0,65.074a29.475,29.475,0,1,0-.351-58.949C19.352,6.138,6.108,19.52,6.125,35.591A29.537,29.537,0,0,0,35.638,65.074Z"/><path class="cls-1" d="M41.018,58.554H30.274V41.613l-3.264-.236c0-2.164,0-4.3,0-6.433,0-2.456-.026-4.913.011-7.368.036-2.381.795-3.135,3.123-3.145,3.774-.016,7.548.007,11.322-.005,1.58-.006,2.621.757,2.648,2.306.085,4.837.031,9.677.031,14.665l-3.127.176Z"/><path class="cls-1" d="M30.49,17.688A5.11,5.11,0,1,1,35.556,22.9,5.073,5.073,0,0,1,30.49,17.688Z"/></g></g></svg>