<svg xmlns="http://www.w3.org/2000/svg" width="125.5" height="27.4" viewBox="0 0 125.5 27.4"><defs><style>.cls-1{fill:#b2b2b2;}</style></defs><title>copyright</title><g id="Layer_2" data-name="Layer 2"><g id="Layer_1-2" data-name="Layer 1"><path class="cls-1" d="M62.7,0A13.6,13.6,0,0,1,76.5,13.8,13.8,13.8,0,0,1,49,13.7,13.7,13.7,0,0,1,62.7,0ZM74,13.7A11.1,11.1,0,0,0,62.8,2.5,11.3,11.3,0,0,0,51.5,13.7,11.5,11.5,0,0,0,62.7,25C68.3,25,74.1,20.3,74,13.7Z"/><path class="cls-1" d="M56.6,15.9h3.3v.3a2.2,2.2,0,0,0,2,2.1,2.8,2.8,0,0,0,3.3-1.2,6.1,6.1,0,0,0,.2-6.4,2.7,2.7,0,0,0-3.4-1.2A2.5,2.5,0,0,0,60,11.8h.9l-2.6,2.5-2.5-2.5h.8a4.3,4.3,0,0,1,.1-.5,5.9,5.9,0,0,1,7.2-4.7A6.7,6.7,0,0,1,69.7,13,8.1,8.1,0,0,1,68,18.9a6.9,6.9,0,0,1-8.1,1.8A5.6,5.6,0,0,1,56.6,15.9Z"/><path class="cls-1" d="M111.8,0A13.7,13.7,0,1,1,98,13.6,13.7,13.7,0,0,1,111.8,0Zm0,25.1a11.4,11.4,0,1,0-11.4-11.4A11.4,11.4,0,0,0,111.8,25.1Z"/><path class="cls-1" d="M113.8,22.6h-4.1V16h-1.3V10.6c0-.9.3-1.2,1.2-1.2H114c.6,0,1,.3,1,.9s0,3.7,0,5.7h-1.2Z"/><path class="cls-1" d="M109.8,6.8a2,2,0,0,1,3.9.1,2,2,0,1,1-3.9-.1Z"/><path class="cls-1" d="M13.8,0A13.6,13.6,0,0,1,27.5,13.8,13.8,13.8,0,0,1,0,13.7C0,6.7,5.8-.2,13.8,0ZM25,13.8A11.2,11.2,0,0,0,13.8,2.5C7,2.4,2.5,8.4,2.5,13.7a11.3,11.3,0,0,0,22.5.1Z"/><path class="cls-1" d="M13.6,11.5l-1.8.9c-.3-.3-.5-.7-.9-.9a1.5,1.5,0,0,0-2.2.8,7.5,7.5,0,0,0-.1,2.6,1.5,1.5,0,0,0,1.3,1.2,1.6,1.6,0,0,0,1.8-.8L12,15l1.5.8c-.6,1.6-2.4,2.4-4.4,2.1a3.7,3.7,0,0,1-3.2-3.8c-.1-2.3.9-3.9,2.8-4.5A4.3,4.3,0,0,1,13.6,11.5Z"/><path class="cls-1" d="M19.9,15l1.6.8a4.1,4.1,0,0,1-4.7,2.1,3.8,3.8,0,0,1-2.9-4c-.1-2.3,1-3.8,2.9-4.3a4,4,0,0,1,4.7,1.9l-1.7.9a7.6,7.6,0,0,0-.9-.9,1.7,1.7,0,0,0-2.4.9,16.9,16.9,0,0,0-.1,2.3,1.6,1.6,0,0,0,1.4,1.4C18.7,16.3,19.2,16,19.9,15Z"/></g></g></svg>